HIERARCHY
ROOT Hips
{
	OFFSET 0.00000 0.00000 0.00000
	CHANNELS 6 Xposition Yposition Zposition Zrotation Yrotation Xrotation 
	JOINT LHipJoint
	{
		OFFSET 0 0 0
		CHANNELS 3 Zrotation Yrotation Xrotation
		JOINT LeftUpLeg
		{
			OFFSET 1.60223 -1.58443 0.78595
			CHANNELS 3 Zrotation Yrotation Xrotation
			JOINT LeftLeg
			{
				OFFSET 2.21690 -6.09089 0.00000
				CHANNELS 3 Zrotation Yrotation Xrotation
				JOINT LeftFoot
				{
					OFFSET 2.34805 -6.45122 0.00000
					CHANNELS 3 Zrotation Yrotation Xrotation
					JOINT LeftToeBase
					{
						OFFSET 0.35452 -0.97402 1.38549
						CHANNELS 3 Zrotation Yrotation Xrotation
						End Site
						{
							OFFSET 0.00000 -0.00000 0.82816
						}
					}
				}
			}
		}
	}
	JOINT RHipJoint
	{
		OFFSET 0 0 0
		CHANNELS 3 Zrotation Yrotation Xrotation
		JOINT RightUpLeg
		{
			OFFSET -1.56524 -1.58443 0.78595
			CHANNELS 3 Zrotation Yrotation Xrotation
			JOINT RightLeg
			{
				OFFSET -2.15558 -5.92241 0.00000
				CHANNELS 3 Zrotation Yrotation Xrotation
				JOINT RightFoot
				{
					OFFSET -2.35077 -6.45870 0.00000
					CHANNELS 3 Zrotation Yrotation Xrotation
					JOINT RightToeBase
					{
						OFFSET -0.26910 -0.73935 1.33295
						CHANNELS 3 Zrotation Yrotation Xrotation
						End Site
						{
							OFFSET -0.00000 -0.00000 0.75962
						}
					}
				}
			}
		}
	}
	JOINT LowerBack
	{
		OFFSET 0 0 0
		CHANNELS 3 Zrotation Yrotation Xrotation
		JOINT Spine
		{
			OFFSET -0.05489 1.97104 -0.02993
			CHANNELS 3 Zrotation Yrotation Xrotation
			JOINT Spine1
			{
				OFFSET -0.00702 1.94230 0.13626
				CHANNELS 3 Zrotation Yrotation Xrotation
				JOINT Neck
				{
					OFFSET 0 0 0
					CHANNELS 3 Zrotation Yrotation Xrotation
					JOINT Neck1
					{
						OFFSET -0.07858 1.62869 -0.02510
						CHANNELS 3 Zrotation Yrotation Xrotation
						JOINT Head
						{
							OFFSET 0.13978 1.59213 -0.29859
							CHANNELS 3 Zrotation Yrotation Xrotation
							End Site
							{
								OFFSET 0.05353 1.64420 -0.10000
							}
						}
					}
				}
				JOINT LeftShoulder
				{
					OFFSET 0 0 0
					CHANNELS 3 Zrotation Yrotation Xrotation
					JOINT LeftArm
					{
						OFFSET 3.48263 1.15278 0.52941
						CHANNELS 3 Zrotation Yrotation Xrotation
						JOINT LeftForeArm
						{
							OFFSET 4.59207 -0.00000 -0.00000
							CHANNELS 3 Zrotation Yrotation Xrotation
							JOINT LeftHand
							{
								OFFSET 2.98109 -0.00000 -0.00000
								CHANNELS 3 Zrotation Yrotation Xrotation
								JOINT LeftFingerBase
								{
									OFFSET 0 0 0
									CHANNELS 3 Zrotation Yrotation Xrotation
									JOINT LeftHandIndex1
									{
										OFFSET 0.48020 -0.00000 -0.00000
										CHANNELS 3 Zrotation Yrotation Xrotation
										End Site
										{
											OFFSET 0.38715 -0.00000 -0.00000
										}
									}
								}
								JOINT LThumb
								{
									OFFSET 0 0 0
									CHANNELS 3 Zrotation Yrotation Xrotation
									End Site
									{
										OFFSET 0.39306 -0.00000 0.39306
									}
								}
							}
						}
					}
				}
				JOINT RightShoulder
				{
					OFFSET 0 0 0
					CHANNELS 3 Zrotation Yrotation Xrotation
					JOINT RightArm
					{
						OFFSET -3.52496 1.12722 0.24548
						CHANNELS 3 Zrotation Yrotation Xrotation
						JOINT RightForeArm
						{
							OFFSET -4.76508 -0.00000 -0.00000
							CHANNELS 3 Zrotation Yrotation Xrotation
							JOINT RightHand
							{
								OFFSET -2.78902 -0.00000 -0.00000
								CHANNELS 3 Zrotation Yrotation Xrotation
								JOINT RightFingerBase
								{
									OFFSET 0 0 0
									CHANNELS 3 Zrotation Yrotation Xrotation
									JOINT RightHandIndex1
									{
										OFFSET -0.72130 -0.00000 -0.00000
										CHANNELS 3 Zrotation Yrotation Xrotation
										End Site
										{
											OFFSET -0.58153 -0.00000 -0.00000
										}
									}
								}
								JOINT RThumb
								{
									OFFSET 0 0 0
									CHANNELS 3 Zrotation Yrotation Xrotation
									End Site
									{
										OFFSET -0.59041 -0.00000 0.59041
									}
								}
							}
						}
					}
				}
			}
		}
	}
}
MOTION
Frames: 12
Frame Time: .0083333
20.2295 16.0545 -0.8712 0 0 0 0 0 0 -21 0 0 0 0 0 0 0 0 0 0 0 0 0 0 21 0 0 0 0 0 0 0 0 0 0 0 0 0 0 0 0 0 0 0 0 0 0 -16 0 0 21 0 0 11 0 0 0 -8 0 0 0 0 0 0 0 0 0 0 0 0 0 0 0 0 0 0 0 0 8 0 0 0 0 0 0 0 0 0 0 0 0 0 0 0 0 0
20.2295 16.0545 -0.8712 -175.2780 -87.3240 -179.6380 0.0000 0.0000 0.0000 -16.9827 -4.7427 -18.0260 3.7860 11.8701 35.2738 1.7143 -11.3484 -23.6251 2.9838 -10.6688 -31.1710 0.0000 0.0000 0.0000 22.5466 2.9841 -7.8708 -0.9413 -6.1795 17.3061 4.7929 -35.8694 -22.0697 -6.1403 -14.5630 45.5423 -0.2050 1.8905 -2.2131 -1.3158 2.3767 -4.9470 -1.2639 1.1205 -3.8039 -6.6014 -3.4365 -2.9433 7.8954 -5.0347 9.0164 3.2701 -2.4378 3.5231 -0.0000 0.0000 0.0000 -96.1162 13.0037 10.1679 30.4988 -41.3171 -11.7376 -0.0000 -0.0000 14.0402 29.3142 41.0275 20.2329 -7.1250 0.0000 -0.0000 -12.6683 74.6075 -8.8850 -0.0000 0.0000 0.0000 98.0743 -13.4056 11.5519 -43.1840 49.8472 -20.8413 0.0000 -0.0000 -8.0806 6.7441 45.4854 4.8200 7.1250 -0.0000 -0.0000 21.3515 13.0539 27.3388
20.2290 16.0405 -0.8663 -178.4220 -87.4023 -176.7240 0.0000 0.0000 0.0000 -17.1663 -4.8934 -17.8080 3.8195 11.9163 35.4365 1.7278 -11.2515 -23.7051 2.9869 -10.6737 -31.1873 0.0000 0.0000 0.0000 22.4105 2.4921 -7.4781 -0.8960 -6.0331 16.8806 4.4757 -34.9200 -21.6894 -6.2712 -14.6861 46.0606 -0.3086 1.8285 -2.2109 -1.2285 2.3069 -4.7276 -1.1105 1.0960 -3.5855 -6.9099 -3.3835 -3.4283 8.1486 -4.9518 9.2324 3.3943 -2.3837 3.6760 0.0000 -0.0000 0.0000 -96.2317 12.7974 9.9154 30.1822 -41.0490 -11.5291 -0.0000 -0.0000 14.7050 28.4570 42.0534 19.9526 -7.1250 0.0000 -0.0000 -15.8446 75.2436 -11.3496 0.0000 -0.0000 0.0000 98.1617 -12.7512 12.2045 -44.0826 50.3111 -21.5305 0.0000 -0.0000 -8.3146 6.2147 45.3512 4.4299 7.1250 -0.0000 -0.0000 21.1110 12.9538 26.9622
20.2280 16.0359 -0.8608 -180.2890 -87.4827 -175.0880 0.0000 0.0000 0.0000 -17.2925 -5.1617 -17.5190 3.8428 11.9483 35.5492 1.7501 -11.0201 -23.8311 3.0278 -10.7400 -31.4079 0.0000 0.0000 0.0000 22.3248 2.0871 -7.2530 -0.8788 -5.9763 16.7157 4.3473 -34.5192 -21.5119 -6.3168 -14.7284 46.2401 -0.3286 1.7427 -2.1970 -1.1159 2.2042 -4.5469 -0.9792 1.0513 -3.4121 -7.2671 -3.3403 -3.6951 8.4219 -4.8808 9.2814 3.5369 -2.3418 3.7445 -0.0000 0.0000 0.0000 -96.3671 12.6732 9.4667 29.8970 -40.8049 -11.3422 -0.0000 -0.0000 15.3009 26.8240 43.0088 19.0302 -7.1250 0.0000 -0.0000 -20.2513 75.4855 -14.6596 -0.0000 0.0000 0.0000 98.2036 -12.1844 12.9606 -44.8681 50.7037 -22.1366 0.0000 -0.0000 -8.5003 5.5444 45.6652 3.9717 7.1250 -0.0000 -0.0000 20.8233 13.2870 26.6337
20.2268 16.0315 -0.8550 -179.7600 -87.5441 -175.9140 0.0000 0.0000 0.0000 -17.3108 -5.4642 -17.1174 3.8596 11.9712 35.6300 1.7780 -10.7313 -23.9926 3.0355 -10.7524 -31.4492 0.0000 0.0000 0.0000 22.3508 1.7157 -6.9461 -0.8602 -5.9142 16.5358 4.3094 -34.3855 -21.3709 -6.3256 -14.7366 46.2749 -0.0683 1.6237 -1.8220 -1.0931 2.0475 -4.5389 -1.1115 0.9653 -3.6088 -7.5419 -3.2794 -3.8480 8.7001 -4.8081 9.4246 3.6699 -2.2998 3.8197 -0.0000 0.0000 0.0000 -96.3299 12.8686 8.7852 29.6680 -40.6071 -11.1929 -0.0000 -0.0000 15.6806 25.0941 43.8253 17.9671 -7.1250 0.0000 -0.0000 -24.5579 75.5267 -17.8720 -0.0000 0.0000 0.0000 98.3986 -11.9547 13.8792 -45.6774 51.0961 -22.7647 0.0000 -0.0000 -8.6684 5.1635 46.0383 3.7215 7.1250 -0.0000 -0.0000 20.6694 13.6617 26.5080
20.2270 16.0232 -0.8367 -179.3710 -88.1283 -176.9080 0.0000 0.0000 0.0000 -17.4174 -6.1378 -16.2964 3.8649 11.9784 35.6555 1.8000 -10.4483 -24.1176 3.0388 -10.7576 -31.4667 0.0000 0.0000 0.0000 22.3241 0.9041 -6.4204 -0.8495 -5.8785 16.4324 4.3061 -34.4416 -21.7929 -6.2757 -14.6903 46.0783 0.4383 1.3178 -1.0728 -1.1355 1.6487 -4.4644 -1.4514 0.7493 -3.9461 -8.2760 -3.1882 -4.1509 9.5547 -4.7301 9.7937 4.0583 -2.2430 4.0099 -0.0000 0.0000 0.0000 -96.1946 13.1185 8.0747 29.3969 -40.3708 -11.0169 -0.0000 -0.0000 15.7967 22.0483 44.5512 15.8615 -7.1250 0.0000 -0.0000 -30.2841 74.9572 -21.8354 -0.0000 0.0000 0.0000 98.5319 -11.7003 14.9664 -46.2545 51.3685 -23.2147 0.0000 -0.0000 -8.8314 4.9622 46.2857 3.5910 7.1250 -0.0000 -0.0000 20.5915 13.9078 26.4578
20.2247 16.0262 -0.8410 -176.8480 -87.8564 -179.4500 0.0000 0.0000 0.0000 -17.3145 -6.1405 -16.1996 3.8629 11.9756 35.6458 1.8312 -10.2085 -24.3091 3.0477 -10.7718 -31.5142 0.0000 0.0000 0.0000 22.3953 1.0850 -6.3137 -0.8462 -5.8672 16.3995 4.3287 -34.5787 -22.2274 -6.1784 -14.5990 45.6935 0.6358 1.2951 -0.9515 -1.1129 1.6194 -4.5574 -1.5428 0.7254 -4.1078 -8.7307 -3.0663 -4.3681 10.1754 -4.6031 10.0353 4.3342 -2.1639 4.1300 0.0000 -0.0000 0.0000 -95.9298 13.3818 7.5006 29.0600 -40.0739 -10.7993 -0.0000 -0.0000 15.7093 18.7597 45.5460 13.6279 -7.1250 0.0000 -0.0000 -36.6786 74.4634 -26.3346 0.0000 -0.0000 0.0000 98.6797 -11.2897 15.9951 -46.5652 51.5126 -23.4576 0.0000 -0.0000 -8.8809 4.8438 46.4344 3.5138 7.1250 -0.0000 -0.0000 20.5462 14.0557 26.4294
20.2222 16.0286 -0.8453 -175.9110 -87.4832 -180.3850 0.0000 0.0000 0.0000 -17.2555 -6.1374 -16.0916 3.8569 11.9675 35.6170 1.8627 -9.8885 -24.5010 3.0386 -10.7573 -31.4658 0.0000 0.0000 0.0000 22.4361 1.2343 -6.2880 -0.8486 -5.8753 16.4230 4.2864 -34.4739 -22.3392 -6.1150 -14.5388 45.4414 0.6749 1.3330 -0.9510 -1.0645 1.6715 -4.5800 -1.5164 0.7504 -4.1304 -8.6222 -2.9961 -4.5167 10.1865 -4.5079 10.0505 4.3234 -2.1082 4.1482 0.0000 -0.0000 0.0000 -95.7151 13.5338 7.0530 28.7689 -39.8145 -10.6124 -0.0000 -0.0000 15.7789 18.2899 45.5002 13.2650 -7.1250 0.0000 -0.0000 -37.0716 74.2547 -26.4789 0.0000 -0.0000 0.0000 98.9103 -10.8065 16.7420 -47.1066 51.7597 -23.8821 0.0000 -0.0000 -8.7817 5.0362 46.5146 3.6585 7.1250 -0.0000 -0.0000 20.6351 14.1196 26.5742
20.2212 16.0273 -0.8496 -175.9600 -87.1282 -180.3470 0.0000 0.0000 0.0000 -17.2647 -6.4745 -15.8419 3.8534 11.9628 35.6005 1.9133 -9.2754 -24.8152 3.0393 -10.7584 -31.4692 0.0000 0.0000 0.0000 22.4543 1.2634 -6.3197 -0.8534 -5.8915 16.4700 4.1790 -34.1363 -22.2186 -6.1186 -14.5423 45.4557 0.5981 1.3743 -0.9459 -0.9905 1.7281 -4.5804 -1.3986 0.7830 -4.1364 -8.3474 -2.9335 -4.6460 9.9700 -4.4036 9.9685 4.2136 -2.0524 4.1252 -0.0000 -0.0000 0.0000 -95.5762 13.6411 6.6034 28.5500 -39.6176 -10.4725 -0.0000 -0.0000 15.9741 18.6383 46.7424 13.8006 -7.1250 0.0000 -0.0000 -40.1584 75.2469 -29.6308 -0.0000 -0.0000 0.0000 99.0319 -10.4685 17.5823 -47.6782 52.0150 -24.3318 0.0000 -0.0000 -8.8343 5.2021 46.6595 3.7883 7.1250 -0.0000 -0.0000 20.7151 14.2465 26.7222
20.2215 16.0229 -0.8540 -177.1790 -86.7801 -179.1360 0.0000 0.0000 0.0000 -17.3278 -6.5370 -15.7349 3.8555 11.9655 35.6102 1.9464 -8.9258 -25.0276 3.0501 -10.7757 -31.5270 0.0000 0.0000 0.0000 22.4217 1.2304 -6.4206 -0.8613 -5.9180 16.5467 4.0742 -33.6969 -21.4934 -6.2871 -14.7009 46.1234 0.3856 1.4163 -0.9190 -0.8954 1.7838 -4.5966 -1.1843 0.8201 -4.1762 -8.2920 -2.8950 -4.6950 9.9079 -4.3341 9.8502 4.1878 -2.0173 4.0890 0.0000 0.0000 0.0000 -95.4452 13.8018 6.2678 28.2557 -39.3506 -10.2854 -0.0000 -0.0000 15.6467 20.2463 46.1978 14.9069 -7.1250 0.0000 -0.0000 -36.8456 75.4929 -27.2196 0.0000 0.0000 0.0000 98.9756 -10.2408 18.5710 -48.2792 52.2774 -24.8064 0.0000 -0.0000 -9.0265 5.0655 46.6521 3.6881 7.1250 -0.0000 -0.0000 20.6546 14.2478 26.6346
20.2211 16.0169 -0.8550 -178.6990 -86.4975 -177.5890 0.0000 0.0000 0.0000 -17.3811 -5.9675 -15.9568 3.8600 11.9717 35.6320 1.9299 -9.2097 -24.9225 3.0602 -10.7918 -31.5810 0.0000 0.0000 0.0000 22.3611 1.0778 -6.6380 -0.8732 -5.9577 16.6617 3.9817 -33.1951 -20.1189 -6.5906 -14.9772 47.3085 0.1312 1.4502 -0.9674 -0.7926 1.8279 -4.6045 -0.9362 0.8535 -4.1673 -8.2738 -2.8706 -4.6309 9.8281 -4.2799 9.6464 4.1629 -1.9951 4.0099 0.0000 -0.0000 0.0000 -95.3508 14.0022 6.0061 28.0180 -39.1328 -10.1351 -0.0000 -0.0000 15.2962 21.5479 44.9117 15.5779 -7.1250 0.0000 -0.0000 -31.8134 75.0462 -23.0441 0.0000 -0.0000 0.0000 98.9420 -10.0219 19.3545 -49.1650 52.6531 -25.5089 0.0000 -0.0000 -9.1370 4.9104 46.4468 3.5629 7.1250 -0.0000 -0.0000 20.5762 14.0633 26.4748
20.2207 16.0135 -0.8544 -178.6030 -86.2080 -177.6780 0.0000 0.0000 0.0000 -17.3587 -5.5173 -16.0811 3.8603 11.9722 35.6336 1.9232 -9.3494 -24.8812 3.0689 -10.8057 -31.6274 0.0000 0.0000 0.0000 22.3743 1.0096 -6.7877 -0.8851 -5.9971 16.7761 3.9205 -32.8936 -19.3592 -6.7502 -15.1179 47.9231 -0.0083 1.4982 -1.0024 -0.6765 1.8939 -4.6017 -0.7394 0.8942 -4.1519 -8.1700 -2.8411 -4.5352 9.6663 -4.2183 9.4236 4.0987 -1.9706 3.9160 -0.0000 -0.0000 0.0000 -95.2585 14.1506 5.6604 27.9289 -39.0507 -10.0789 -0.0000 -0.0000 15.7832 20.4974 46.2327 15.1077 -7.1250 0.0000 -0.0000 -36.6695 75.6146 -27.1706 -0.0000 -0.0000 0.0000 98.9761 -9.7899 19.9243 -49.8398 52.9307 -26.0463 0.0000 -0.0000 -9.2133 5.0093 46.3537 3.6292 7.1250 -0.0000 -0.0000 20.6155 13.9692 26.5081
